HIERARCHY
ROOT Hips
{
	OFFSET 50.660801 -5.627976 100.647003
	CHANNELS 6 Xposition Yposition Zposition Xrotation Yrotation Zrotation
	JOINT spine
	{
		OFFSET 0.000000 -0.507025 8.817039
		CHANNELS 3 Xrotation Yrotation Zrotation
		JOINT spine1
		{
			OFFSET 0.000000 -0.000002 10.776604
			CHANNELS 3 Xrotation Yrotation Zrotation
			JOINT spine2
			{
				OFFSET 0.000000 -0.000002 10.325897
				CHANNELS 3 Xrotation Yrotation Zrotation
				JOINT Neck
				{
					OFFSET 0.000000 -1.263954 26.511002
					CHANNELS 3 Xrotation Yrotation Zrotation
					JOINT Head
					{
						OFFSET 0.000000 -0.000001 8.009659
						CHANNELS 3 Xrotation Yrotation Zrotation
						End Site
						{
							OFFSET 0.000000 6.393857 19.387894
						}
					}
				}
				JOINT RightShoulder
				{
					OFFSET -4.347950 0.605421 11.151199
					CHANNELS 3 Xrotation Yrotation Zrotation
					JOINT RightArm
					{
						OFFSET 0.000000 -0.000002 14.625793
						CHANNELS 3 Xrotation Yrotation Zrotation
						JOINT RightArmRoll
						{
							OFFSET 0.000000 -0.000001 7.383392
							CHANNELS 3 Xrotation Yrotation Zrotation
							JOINT RightForeArm
							{
								OFFSET 0.000000 -0.000003 21.505203
								CHANNELS 3 Xrotation Yrotation Zrotation
								JOINT RightForeArmRoll
								{
									OFFSET 0.000000 -0.000001 8.285324
									CHANNELS 3 Xrotation Yrotation Zrotation
									JOINT RightHand
									{
										OFFSET 0.000000 -0.000003 16.626801
										CHANNELS 3 Xrotation Yrotation Zrotation
										End Site
										{
											OFFSET 0.000000 0.000000 0.100006
										}
									}
								}
							}
						}
					}
				}
				JOINT LeftShoulder
				{
					OFFSET 4.347950 0.605421 11.151199
					CHANNELS 3 Xrotation Yrotation Zrotation
					JOINT LeftArm
					{
						OFFSET 0.000000 -0.000002 14.625793
						CHANNELS 3 Xrotation Yrotation Zrotation
						JOINT LeftArmRoll
						{
							OFFSET 0.000000 -0.000001 7.383392
							CHANNELS 3 Xrotation Yrotation Zrotation
							JOINT LeftForeArm
							{
								OFFSET 0.000000 -0.000003 21.505203
								CHANNELS 3 Xrotation Yrotation Zrotation
								JOINT LeftForeArmRoll
								{
									OFFSET 0.000000 -0.000001 8.285324
									CHANNELS 3 Xrotation Yrotation Zrotation
									JOINT LeftHand
									{
										OFFSET 0.000000 -0.000003 16.626801
										CHANNELS 3 Xrotation Yrotation Zrotation
										End Site
										{
											OFFSET 0.000000 0.000000 0.100006
										}
									}
								}
							}
						}
					}
				}
			}
		}
	}
	JOINT RightUpLeg
	{
		OFFSET -7.815102 1.202170 -1.433090
		CHANNELS 3 Xrotation Yrotation Zrotation
		JOINT RightUpLegRoll
		{
			OFFSET 0.000000 -0.000003 19.495895
			CHANNELS 3 Xrotation Yrotation Zrotation
			JOINT RightLeg
			{
				OFFSET 0.000000 0.000004 -24.142700
				CHANNELS 3 Xrotation Yrotation Zrotation
				JOINT RightLegRoll
				{
					OFFSET 0.000000 -0.000004 24.221703
					CHANNELS 3 Xrotation Yrotation Zrotation
					JOINT RightFoot
					{
						OFFSET 0.000000 -0.000003 20.160500
						CHANNELS 3 Xrotation Yrotation Zrotation
						JOINT RightToeBase
						{
							OFFSET 0.000000 -0.000003 16.853195
							CHANNELS 3 Xrotation Yrotation Zrotation
							End Site
							{
								OFFSET 0.007145 0.940778 8.161865
							}
						}
					}
				}
			}
		}
	}
	JOINT LeftUpLeg
	{
		OFFSET 7.815102 1.202170 -1.433090
		CHANNELS 3 Xrotation Yrotation Zrotation
		JOINT LeftUpLegRoll
		{
			OFFSET 0.000000 -0.000003 19.496002
			CHANNELS 3 Xrotation Yrotation Zrotation
			JOINT LeftLeg
			{
				OFFSET 0.000000 -0.000004 24.142593
				CHANNELS 3 Xrotation Yrotation Zrotation
				JOINT LeftLegRoll
				{
					OFFSET 0.000000 -0.000004 24.445602
					CHANNELS 3 Xrotation Yrotation Zrotation
					JOINT LeftFoot
					{
						OFFSET 0.000000 -0.000003 19.936600
						CHANNELS 3 Xrotation Yrotation Zrotation
						JOINT LeftToeBase
						{
							OFFSET 0.000000 -0.000003 16.853195
							CHANNELS 3 Xrotation Yrotation Zrotation
							End Site
							{
								OFFSET -0.032013 0.940779 8.161865
							}
						}
					}
				}
			}
		}
	}
}
MOTION
Frames: 6
Frame Time: 0.041667
50.956394 -6.202197 100.574989 -3.296579 -0.241913 3.640596 -2.132948 0.150272 -0.053259 -0.247664 0.310017 -0.111442 1.397430 0.308675 -0.115148 24.351417 1.284848 2.674039 -16.109314 4.438234 2.868707 -11.040925 -35.938970 -11.633123 -147.050694 -138.535812 -124.740756 0.000000 -0.000001 -0.000002 106.760358 5.290296 -2.423872 0.000005 -0.000010 -3.007220 -5.000225 -7.998780 0.000173 -8.030913 64.355163 9.885678 -39.506118 114.418434 33.378342 -0.000006 0.000004 0.000002 3.666908 12.650787 -0.034333 -0.000007 -0.000009 3.000002 -5.000249 7.998712 -0.000158 3.027111 -178.365281 -0.036411 -179.999991 0.000005 -1.131006 174.146465 -1.570769 -0.426021 0.000004 0.000002 0.077063 69.371677 6.880818 2.132570 25.698238 -7.354758 0.363870 1.527942 177.010062 2.079624 -0.000005 -0.000004 -1.129170 -7.499169 2.102281 0.448858 -0.000004 -0.000001 -0.125763 70.021638 -6.888112 -2.078237 25.456955 7.355613 -0.000002 
50.950092 -6.207800 100.568993 -3.294198 -0.239489 3.639476 -2.133570 0.150992 -0.052869 -0.249316 0.310740 -0.110402 1.395770 0.309442 -0.114118 24.360032 1.305396 2.684826 -16.114826 4.442295 2.881338 -11.037426 -35.937611 -11.628285 -147.037444 -138.552491 -124.404273 0.000000 -0.000002 -0.000004 106.293473 5.166807 -2.225145 0.000006 -0.000009 -3.007222 -5.000228 -7.998780 0.000172 -8.038431 64.362191 9.894776 -39.489377 114.410832 33.357944 -0.000007 0.000004 0.000001 3.655846 12.651438 -0.033395 -0.000006 -0.000009 3.000002 -5.000248 7.998712 -0.000158 3.024604 -178.368286 -0.040456 -179.999991 0.000005 -1.131006 174.142244 -1.565784 -0.425627 0.000004 0.000002 0.077013 69.373910 6.880848 2.132638 25.698940 -7.354761 0.365152 1.527913 177.008068 2.078503 -0.000005 -0.000004 -1.129200 -7.495395 2.102249 0.449014 -0.000004 -0.000001 -0.125821 70.020668 -6.888087 -2.078192 25.456948 7.355613 -0.000002 
50.955196 -6.224198 100.571999 -3.292266 -0.236878 3.638054 -2.134021 0.151801 -0.052435 -0.250862 0.311405 -0.109138 1.394230 0.310169 -0.112862 24.369936 1.324917 2.695326 -16.121567 4.447805 2.893702 -11.034288 -35.936610 -11.623984 -147.024125 -138.564731 -124.095631 0.000001 0.000000 0.000001 105.830837 5.046473 -2.044083 0.000005 -0.000007 -3.007220 -5.000228 -7.998783 0.000174 -8.045328 64.369158 9.903165 -39.472633 114.403223 33.336623 -0.000007 0.000004 0.000001 3.644234 12.651395 -0.032328 -0.000007 -0.000008 3.000002 -5.000245 7.998712 -0.000158 3.022858 -178.371264 -0.044615 -179.999991 0.000005 -1.131006 174.138514 -1.560800 -0.426216 0.000005 0.000002 0.076963 69.375823 6.880902 2.132528 25.699753 -7.354757 0.366487 1.528547 177.005063 2.077059 -0.000005 -0.000004 -1.129230 -7.491481 2.102278 0.449171 -0.000003 -0.000001 -0.125880 70.019705 -6.888062 -2.078247 25.456952 7.355613 -0.000003 
50.958000 -6.218728 100.572990 -3.290726 -0.234105 3.636410 -2.134319 0.152680 -0.051966 -0.252308 0.312019 -0.107682 1.392780 0.310858 -0.111414 24.380738 1.343641 2.705521 -16.129446 4.454424 2.905790 -11.031498 -35.935971 -11.620166 -147.010082 -138.573419 -123.810156 0.000001 -0.000000 -0.000003 105.369253 4.929523 -1.875552 0.000001 -0.000006 -3.007213 -5.000225 -7.998782 0.000176 -8.051704 64.376152 9.910953 -39.457265 114.394850 33.315938 -0.000006 0.000004 0.000001 3.632204 12.650761 -0.031154 -0.000009 -0.000010 3.000001 -5.000247 7.998713 -0.000158 3.021772 -178.375253 -0.048914 -179.999991 0.000005 -1.131006 174.135222 -1.555817 -0.425795 0.000005 0.000002 0.076914 69.377428 6.880940 2.132635 25.700451 -7.354767 0.367843 1.529724 177.002071 2.075378 -0.000005 -0.000004 -1.129270 -7.487489 2.102357 0.449330 -0.000003 -0.000001 -0.125937 70.018755 -6.888068 -2.078207 25.456953 7.355613 -0.000002 
50.959492 -6.207930 100.571999 -3.289516 -0.231193 3.634602 -2.134490 0.153617 -0.051467 -0.253654 0.312595 -0.106068 1.391431 0.311517 -0.109808 24.392238 1.361809 2.715382 -16.137833 4.461857 2.917558 -11.028997 -35.935507 -11.616761 -146.995397 -138.579443 -123.544066 0.000000 0.000000 0.000001 104.906303 4.815664 -1.718364 0.000001 -0.000008 -3.007210 -5.000225 -7.998788 0.000175 -8.057609 64.383378 9.918224 -39.442099 114.386537 33.294604 -0.000005 0.000004 0.000001 3.619918 12.649531 -0.029892 -0.000008 -0.000008 3.000001 -5.000248 7.998712 -0.000158 3.021237 -178.379256 -0.053272 -179.999991 0.000005 -1.131006 174.132299 -1.550835 -0.425364 0.000004 0.000002 0.076865 69.378808 6.880969 2.132656 25.701268 -7.354764 0.369229 1.531292 176.998069 2.073479 -0.000005 -0.000004 -1.129300 -7.483527 2.102465 0.449488 -0.000003 -0.000001 -0.125995 70.017806 -6.888079 -2.078169 25.456953 7.355613 -0.000002 
50.952301 -6.212428 100.579002 -3.288583 -0.228171 3.632719 -2.134540 0.154599 -0.050944 -0.254902 0.313141 -0.104330 1.390181 0.312149 -0.108076 24.404133 1.379659 2.724875 -16.146746 4.469768 2.928991 -11.026756 -35.935111 -11.613702 -146.979770 -138.583582 -123.292865 0.000000 -0.000000 -0.000002 104.439173 4.704364 -1.572255 0.000004 -0.000008 -3.007208 -5.000231 -7.998784 0.000174 -8.063078 64.390816 9.924999 -39.426714 114.378170 33.272303 -0.000005 0.000004 0.000002 3.607533 12.647900 -0.028573 -0.000005 -0.000008 3.000001 -5.000247 7.998712 -0.000157 3.021142 -178.382234 -0.057605 -179.999991 0.000005 -1.131006 174.129690 -1.545854 -0.425920 0.000004 0.000002 0.076816 69.379982 6.881022 2.132691 25.702075 -7.354761 0.370634 1.533138 176.995063 2.071452 -0.000005 -0.000005 -1.129330 -7.479656 2.102602 0.449648 -0.000003 -0.000001 -0.126052 70.016945 -6.888056 -2.078117 25.456952 7.355613 -0.000002 
